<svg width="512" height="512" viewBox="0 0 512 512" fill="none" xmlns="http://www.w3.org/2000/svg">
<path fill-rule="evenodd" clip-rule="evenodd" d="M433.036 251.912H444.393C462.189 251.912 474.665 266.93 471.512 284.546L468.499 301.369C467.204 308.606 463.428 315.135 458.165 320.119L462.054 326.93C467.484 336.449 460.605 348.378 449.7 348.378C444.829 348.378 439.888 348.635 435.035 348.555C427.773 348.664 421.141 347.793 417.388 340.418L412.073 329.976L409.433 329.98L408.503 335.159C407.127 342.818 400.278 348.571 392.541 348.571H378.671C369.368 348.571 362.525 340.346 364.18 331.133L370.948 293.456H361.869L354.373 335.161C352.998 342.818 346.151 348.571 338.411 348.571H324.524C315.22 348.571 308.378 340.344 310.034 331.133L316.806 293.456H309.166C308.702 293.456 308.244 293.436 307.794 293.394L300.279 335.163C298.902 342.82 292.053 348.571 284.318 348.571H269.117C264.253 348.571 259.715 346.262 256.942 342.234C256.741 341.945 256.584 341.692 256.412 341.388L247.719 326.026L246.08 335.142C244.705 342.8 237.855 348.555 230.12 348.555H216.338C213.215 348.555 210.373 347.629 208.034 346.052C205.722 347.645 202.945 348.571 200.016 348.571H138.077C132.634 348.571 128.028 345.752 125.474 341.567C119.619 345.949 112.467 348.571 105.049 348.571H102.913C102.7 348.571 102.489 348.567 102.281 348.555H54.7377C45.431 348.555 38.5858 340.321 40.2501 331.104L42.2635 319.954C43.098 315.339 45.9201 311.414 49.724 309.027C45.8321 303.304 44.136 295.969 45.5581 288.119L46.9231 280.579C49.7792 264.816 64.2636 252.427 80.1493 252.011C78.823 249.289 78.3179 246.103 78.9133 242.79L90.7349 177.049C92.1128 169.392 98.9612 163.639 106.697 163.639H168.513C170.796 163.639 172.921 164.194 174.773 165.17C176.968 164.055 179.426 163.429 181.98 163.429H195.166C204.473 163.429 211.292 171.656 209.638 180.865L202.957 218.087H214.073L221.476 176.841C222.852 169.182 229.703 163.429 237.44 163.429H250.889C254.643 163.429 258.001 164.773 260.56 166.984C263.331 164.841 266.776 163.569 270.412 163.569H322.826C340.623 163.569 353.098 178.587 349.944 196.202L348.661 203.368L368.822 172.636C368.942 172.453 369.049 172.298 369.18 172.123C373.532 166.224 379.414 164.02 386.501 163.752C386.529 163.752 386.557 163.75 386.584 163.75C387.878 163.693 389.165 163.713 390.457 163.729C390.591 163.729 390.726 163.727 390.859 163.727C391.015 163.727 391.145 163.729 391.281 163.736C391.547 163.74 391.835 163.727 392.119 163.727C393.795 163.727 395.473 163.76 397.149 163.763C404.251 163.628 410.575 168.402 412.926 175.104C412.957 175.195 412.984 175.273 413.013 175.363L434.045 240.256C435.3 244.13 434.87 248.338 433.036 251.912Z" fill="black"/>
<path d="M93.4215 248.907H107.29C109.585 248.907 111.773 247.075 112.176 244.803L116.345 221.605C116.43 221.165 116.868 220.777 117.325 220.777H151.875C153.259 220.777 154.573 219.685 154.818 218.312L157.112 205.523C157.358 204.167 156.447 203.057 155.063 203.057H120.513C120.04 203.057 119.741 202.687 119.83 202.23L121.194 194.62C121.267 194.161 121.702 193.79 122.175 193.79H165.132C166.515 193.79 167.829 192.681 168.075 191.324L170.56 177.393C170.806 176.053 169.896 174.96 168.513 174.96H106.696C104.402 174.96 102.212 176.793 101.809 179.064L89.9897 244.803C89.5868 247.075 91.1272 248.907 93.4215 248.907ZM250.888 174.75H237.437C235.144 174.75 232.956 176.582 232.553 178.855L223.919 226.943C223.674 228.316 222.36 229.408 220.977 229.408H191.978C190.613 229.408 189.684 228.316 189.93 226.943L198.563 178.855C198.982 176.582 197.46 174.75 195.166 174.75H181.979C179.686 174.75 177.496 176.582 177.093 178.855L167.986 229.549C166.077 240.17 173.223 248.803 183.975 248.819L220.012 248.907H220.084H222.186C232.956 248.942 243.27 240.293 245.179 229.637L254.301 178.836C254.704 176.582 253.164 174.75 250.888 174.75ZM257.105 248.907H270.973C273.267 248.907 275.457 247.075 275.859 244.803L278.311 231.152C278.399 230.711 278.835 230.325 279.291 230.325L296.068 230.306C296.909 230.306 297.592 230.73 297.942 231.399L305.839 246.917C306.768 248.768 308.432 248.977 313.474 248.891C316.416 248.942 320.9 248.714 328.132 248.714C330.444 248.714 331.878 246.264 330.724 244.222L322.091 229.092C321.861 228.686 322.107 228.157 322.58 227.91C329.253 224.651 334.541 218.328 335.854 211.019L338.866 194.196C340.792 183.521 333.614 174.89 322.825 174.89H270.412C268.118 174.89 265.931 176.722 265.51 178.994L253.689 244.803C253.286 247.075 254.811 248.907 257.105 248.907ZM284.966 194.215C285.036 193.774 285.474 193.403 285.946 193.403H313.073C315.121 193.403 316.47 195.042 316.12 197.067L314.122 208.129C313.754 210.138 311.81 211.776 309.762 211.776H282.635C282.181 211.776 281.882 211.424 281.954 210.949L284.966 194.215ZM335.118 247.199C335.556 248.255 336.589 248.907 337.833 248.907H355.536C356.85 248.907 358.182 248.185 358.986 247.041L361.755 243.113L363.189 240.892H398.686L400.56 247.005C400.91 248.168 401.874 248.891 403.03 248.891H419.806C420.891 248.891 422.012 248.255 422.747 247.199C423.465 246.141 423.694 244.838 423.342 243.764L402.312 178.871C400.945 174.979 397.286 175.084 397.286 175.084C395.342 175.084 393.66 175.049 392.119 175.049C391.664 175.049 391.296 175.067 390.859 175.049H390.316C385.99 174.987 381.101 174.963 378.214 178.871L335.644 243.764C334.875 244.838 334.664 246.141 335.118 247.199ZM387.251 203.989L393.294 223.26H374.678L387.251 203.989Z" fill="white"/>
<path d="M102.913 337.233V337.249H105.049C115.838 337.249 126.116 328.619 128.023 317.962L129.268 311.04C131.194 300.384 123.997 291.751 113.228 291.751H80.0425C78.66 291.751 77.7491 290.642 77.9946 289.285L78.8336 284.635C79.0791 283.263 80.393 282.17 81.758 282.17H126.658C128.953 282.17 131.143 280.319 131.546 278.065L133.453 267.444C133.874 265.153 132.333 263.321 130.039 263.321H80.97C70.2021 263.321 59.9052 271.954 57.9955 282.61L56.6305 290.15C54.7216 300.825 61.8998 309.456 72.6884 309.456H105.872C107.255 309.456 108.166 310.547 107.923 311.921L107.29 315.408C107.047 316.784 105.733 317.874 104.366 317.874H58.223C55.9286 317.874 53.7388 319.706 53.3382 321.979L51.3248 333.129C50.9214 335.401 52.4438 337.233 54.7377 337.233H102.913ZM138.077 337.249H200.017C201.4 337.249 202.714 336.141 202.957 334.786L205.55 320.306C205.795 318.949 204.885 317.839 203.501 317.839H160.44C159.984 317.839 159.687 317.469 159.756 317.011L161.033 309.896C161.122 309.456 161.559 309.067 162.016 309.067H196.654C198.019 309.067 199.333 307.957 199.579 306.619L201.889 293.795C202.134 292.439 201.207 291.329 199.841 291.329H165.22C164.748 291.329 164.449 290.959 164.519 290.502L165.904 282.874C165.973 282.433 166.411 282.046 166.865 282.046H209.927C211.294 282.046 212.624 280.937 212.869 279.58L215.374 265.628C215.619 264.274 214.691 263.162 213.324 263.162H151.384C149.091 263.162 146.885 265.014 146.482 267.267L134.644 333.129C134.241 335.401 135.781 337.249 138.077 337.249ZM243.55 295.767L266.193 335.788C266.823 336.705 267.873 337.249 269.117 337.249H284.318C286.612 337.249 288.802 335.418 289.202 333.148L301.024 267.444C301.409 265.172 299.884 263.321 297.59 263.321H283.81C281.517 263.321 279.327 265.172 278.923 267.426L272.776 301.634C272.619 302.531 271.428 302.762 270.904 301.969L250.099 264.785C249.487 263.85 248.4 263.321 247.192 263.321H229.629C227.335 263.321 225.145 265.172 224.724 267.426L212.923 333.129C212.52 335.401 214.042 337.233 216.336 337.233H230.118C232.412 337.233 234.602 335.401 235.005 333.129L241.659 296.103C241.817 295.187 243.024 294.975 243.55 295.767ZM376.972 263.304H312.545C310.253 263.304 308.064 265.136 307.66 267.409L305.751 278.03C305.332 280.303 306.873 282.135 309.166 282.135H329.446C329.918 282.135 330.215 282.506 330.127 282.962L321.109 333.148C320.708 335.418 322.23 337.249 324.524 337.249H338.411C340.705 337.249 342.876 335.418 343.298 333.148L352.316 282.962C352.386 282.506 352.84 282.135 353.296 282.135H373.576C375.869 282.135 378.059 280.303 378.46 278.03L380.385 267.409C380.791 265.136 379.267 263.304 376.972 263.304ZM378.671 337.249H392.541C394.835 337.249 397.022 335.418 397.426 333.148L399.877 319.496C399.965 319.054 400.403 318.667 400.857 318.667L417.636 318.65C418.474 318.65 419.158 319.072 419.508 319.741L427.407 335.262C428.334 337.11 429.997 337.322 435.042 337.233C437.984 337.287 442.466 337.056 449.7 337.056C452.01 337.056 453.447 334.609 452.29 332.565L443.657 317.433C443.43 317.028 443.675 316.501 444.148 316.254C450.819 312.996 456.109 306.671 457.421 299.362L460.433 282.54C462.361 271.866 455.18 263.235 444.393 263.235H391.98C389.686 263.235 387.497 265.066 387.077 267.339L375.256 333.148C374.852 335.418 376.376 337.249 378.671 337.249ZM406.532 282.557C406.602 282.116 407.039 281.748 407.512 281.748H434.639C436.687 281.748 438.035 283.384 437.686 285.409L435.689 296.473C435.322 298.48 433.378 300.119 431.327 300.119H404.203C403.747 300.119 403.45 299.767 403.52 299.292L406.532 282.557Z" fill="white"/>
</svg>
